<?xml version="1.0" standalone="no"?>
<!DOCTYPE svg PUBLIC "-//W3C//DTD SVG 20010904//EN"
 "http://www.w3.org/TR/2001/REC-SVG-20010904/DTD/svg10.dtd">
<svg version="1.0" xmlns="http://www.w3.org/2000/svg"
 width="215.000000pt" height="161.000000pt" viewBox="0 0 215.000000 161.000000"
 preserveAspectRatio="xMidYMid meet">

<g transform="translate(0.000000,161.000000) scale(0.100000,-0.100000)"
fill="#000000" stroke="none">
<path d="M999 1415 c-3 -2 -34 -5 -70 -6 -80 -1 -154 -18 -125 -29 18 -6 18
-7 -5 -13 -34 -9 -41 -9 -34 3 4 6 -18 1 -47 -11 -29 -11 -73 -29 -98 -38 -32
-13 -49 -27 -59 -49 -9 -21 -30 -39 -58 -53 -23 -11 -45 -25 -49 -30 -3 -5
-10 -7 -15 -3 -12 7 -59 -36 -59 -54 0 -7 -16 -46 -35 -85 -63 -128 -73 -275
-29 -397 43 -117 88 -195 105 -184 13 8 99 -59 113 -88 21 -43 215 -127 340
-146 56 -9 58 -9 67 17 17 48 42 86 76 114 18 16 33 33 33 39 0 5 -14 -2 -31
-16 -35 -30 -49 -32 -89 -11 -30 16 -51 43 -49 67 0 7 4 5 8 -5 4 -10 9 -17
12 -15 3 2 13 -3 22 -10 10 -8 17 -9 21 -3 4 6 14 7 23 4 15 -6 16 -5 3 9 -11
11 -17 12 -22 4 -5 -7 -8 -7 -8 0 0 6 3 14 7 17 3 4 7 32 7 63 1 45 -2 59 -19
70 -11 8 -14 14 -8 14 6 0 25 -11 41 -25 16 -13 33 -21 37 -17 5 4 5 2 2 -4
-4 -6 0 -20 8 -30 13 -18 14 -18 20 9 7 27 20 36 27 16 2 -6 11 5 20 24 l17
35 -35 0 c-54 0 -76 29 -51 68 8 13 -13 24 -45 24 -20 0 -20 1 -4 19 17 19 17
19 -3 14 -11 -3 -29 -2 -38 1 -15 6 -15 8 -3 16 12 8 9 10 -11 10 -22 0 -29 8
-43 43 -24 65 -56 91 -100 83 -37 -7 -43 -2 -65 56 -9 24 -9 24 58 20 36 -3
69 -10 74 -16 5 -8 10 -7 17 4 9 13 13 12 27 -7 18 -27 36 -29 54 -7 12 15 11
16 -10 9 -16 -5 -21 -4 -17 4 4 6 17 11 30 11 13 0 30 8 39 18 20 22 24 67 5
56 -8 -5 -7 -1 2 10 9 12 16 14 18 6 3 -7 15 -2 32 15 24 23 31 25 49 15 12
-6 19 -15 16 -21 -4 -5 -1 -10 4 -10 26 -3 30 -4 36 -10 3 -4 1 -10 -6 -15 -8
-5 -10 -3 -4 6 5 9 4 11 -4 6 -7 -5 2 -23 30 -56 26 -31 44 -64 49 -90 9 -49
-5 -131 -31 -179 -13 -25 -17 -46 -13 -68 8 -41 -17 -85 -44 -77 -14 5 -14 4
-3 -4 12 -8 12 -14 3 -25 -11 -13 -7 -27 8 -27 14 0 50 99 49 132 -1 18 7 56
19 83 11 28 24 59 28 70 5 16 9 10 16 -25 7 -39 21 -73 70 -173 6 -12 5 -24
-3 -33 -9 -11 -9 -14 1 -14 10 0 10 -3 0 -15 -10 -12 -10 -15 4 -15 9 0 16 -7
16 -16 0 -12 3 -14 13 -6 18 16 100 3 93 -14 -3 -8 -8 -54 -12 -104 -8 -107
-8 -107 99 -54 172 85 298 217 331 348 28 114 15 229 -40 340 -13 28 -24 57
-24 65 0 9 -3 11 -9 6 -5 -6 -19 -92 -32 -192 -18 -136 -27 -183 -37 -183 -8
0 -37 12 -64 28 l-50 27 5 70 c3 39 11 131 18 206 13 133 12 136 -9 166 -12
17 -22 45 -22 61 0 25 -8 36 -47 61 -25 17 -58 31 -72 31 -38 0 -72 11 -66 21
12 18 -104 39 -245 45 -80 2 -148 2 -151 -1z m158 -234 c25 -24 56 -101 51
-127 -2 -10 -12 -20 -23 -23 -11 -2 -23 -8 -27 -15 -5 -7 -8 -5 -8 5 0 9 -7
22 -16 29 -8 7 -14 23 -13 34 2 20 -1 33 -21 83 -15 38 22 47 57 14z m-233
-43 c22 -6 45 -15 50 -19 16 -14 -127 2 -148 17 -19 13 -18 14 18 14 21 0 57
-5 80 -12z m-517 -20 c-3 -8 -6 -5 -6 6 -1 11 2 17 5 13 3 -3 4 -12 1 -19z
m497 -38 c37 -14 24 -30 -30 -37 -31 -4 -45 0 -68 18 l-30 23 25 8 c28 8 62 4
103 -12z m116 -10 c0 -5 -5 -10 -11 -10 -5 0 -7 5 -4 10 3 6 8 10 11 10 2 0 4
-4 4 -10z m-30 -5 c0 -2 -10 -9 -22 -15 -22 -11 -22 -10 -4 4 21 17 26 19 26
11z m-83 -61 c-3 -3 -12 -4 -19 -1 -8 3 -5 6 6 6 11 1 17 -2 13 -5z m-80 -29
c0 -10 -6 -14 -14 -10 -8 3 -24 6 -36 6 -14 1 -9 4 13 9 19 4 35 8 36 9 0 0 1
-6 1 -14z m49 -246 c4 -17 17 -31 37 -40 17 -8 33 -20 35 -27 5 -16 -108 39
-127 62 -13 15 -12 29 5 71 7 18 6 18 -9 6 -19 -15 -23 -1 -5 17 10 10 17 4
36 -25 12 -21 25 -50 28 -64z m389 71 c3 -5 1 -10 -4 -10 -6 0 -11 5 -11 10 0
6 2 10 4 10 3 0 8 -4 11 -10z m-365 -210 c-10 -6 -11 -10 -2 -10 6 0 12 -5 12
-11 0 -5 -4 -7 -10 -4 -6 4 -7 -1 -3 -11 4 -10 8 -13 10 -7 2 6 13 9 23 6 24
-6 16 -23 -11 -23 -11 0 -17 -4 -14 -10 3 -5 2 -10 -4 -10 -24 0 -40 68 -19
81 7 5 18 9 23 9 6 0 3 -5 -5 -10z m529 -44 c16 -19 3 -50 -14 -36 -19 16 -26
50 -10 50 7 0 18 -6 24 -14z"/>
<path d="M1160 477 c0 -10 -9 -36 -21 -58 -15 -30 -25 -39 -37 -34 -13 5 -14
3 -5 -6 19 -19 43 -2 64 47 15 33 18 49 10 57 -8 8 -11 6 -11 -6z"/>
<path d="M1114 432 c3 -5 0 -13 -6 -15 -9 -4 -10 -6 -1 -6 17 -1 25 16 12 25
-7 4 -9 3 -5 -4z"/>
<path d="M1065 389 c-4 -6 -5 -12 -2 -15 2 -3 7 2 10 11 7 17 1 20 -8 4z"/>
<path d="M1010 305 c-7 -8 -8 -15 -2 -15 5 0 15 7 22 15 7 8 8 15 2 15 -5 0
-15 -7 -22 -15z"/>
<path d="M1028 273 c7 -3 16 -2 19 1 4 3 -2 6 -13 5 -11 0 -14 -3 -6 -6z"/>
</g>
</svg>
